<svg width="16" height="16" viewBox="0 0 16 16" fill="none" xmlns="http://www.w3.org/2000/svg">
<g clip-path="url(#clip0_1_35734)">
<path d="M6.99992 1.33512C6.54989 1.34121 6.27972 1.36727 6.06126 1.47858C5.81038 1.60641 5.60641 1.81038 5.47858 2.06126C5.36727 2.27972 5.34121 2.54988 5.33512 2.99992M12.9999 1.33512C13.45 1.34121 13.7201 1.36727 13.9386 1.47858C14.1895 1.60641 14.3934 1.81038 14.5213 2.06126C14.6326 2.27972 14.6586 2.54988 14.6647 2.99991M14.6647 8.99991C14.6586 9.44995 14.6326 9.72012 14.5213 9.93857C14.3934 10.1895 14.1895 10.3934 13.9386 10.5213C13.7201 10.6326 13.45 10.6586 12.9999 10.6647M14.6666 5.33325V6.66658M9.33329 1.33325H10.6666M3.46659 14.6666H8.53325C9.27999 14.6666 9.65336 14.6666 9.93857 14.5213C10.1895 14.3934 10.3934 14.1895 10.5213 13.9386C10.6666 13.6534 10.6666 13.28 10.6666 12.5333V7.46658C10.6666 6.71985 10.6666 6.34648 10.5213 6.06126C10.3934 5.81038 10.1895 5.60641 9.93857 5.47858C9.65336 5.33325 9.27999 5.33325 8.53325 5.33325H3.46659C2.71985 5.33325 2.34648 5.33325 2.06126 5.47858C1.81038 5.60641 1.60641 5.81038 1.47858 6.06126C1.33325 6.34648 1.33325 6.71985 1.33325 7.46658V12.5333C1.33325 13.28 1.33325 13.6534 1.47858 13.9386C1.60641 14.1895 1.81038 14.3934 2.06126 14.5213C2.34648 14.6666 2.71985 14.6666 3.46659 14.6666Z" stroke="white" stroke-width="1.25" stroke-linecap="round" stroke-linejoin="round"/>
</g>
<defs>
<clipPath id="clip0_1_35734">
<rect width="16" height="16" fill="white"/>
</clipPath>
</defs>
</svg>
