<svg width="81" height="25" viewBox="0 0 81 25" fill="none" xmlns="http://www.w3.org/2000/svg">
<path d="M6.858 19.216C5.622 19.216 4.554 18.946 3.654 18.406C2.766 17.854 2.076 17.092 1.584 16.12C1.092 15.136 0.846 13.996 0.846 12.7C0.846 11.416 1.092 10.288 1.584 9.316C2.076 8.332 2.766 7.564 3.654 7.012C4.554 6.46 5.622 6.184 6.858 6.184C8.298 6.184 9.468 6.532 10.368 7.228C11.28 7.912 11.862 8.872 12.114 10.108H10.44C10.248 9.328 9.852 8.704 9.252 8.236C8.664 7.756 7.866 7.516 6.858 7.516C5.958 7.516 5.172 7.726 4.5 8.146C3.828 8.554 3.306 9.148 2.934 9.928C2.574 10.696 2.394 11.62 2.394 12.7C2.394 13.78 2.574 14.71 2.934 15.49C3.306 16.258 3.828 16.852 4.5 17.272C5.172 17.68 5.958 17.884 6.858 17.884C7.866 17.884 8.664 17.656 9.252 17.2C9.852 16.732 10.248 16.114 10.44 15.346H12.114C11.862 16.558 11.28 17.506 10.368 18.19C9.468 18.874 8.298 19.216 6.858 19.216ZM17.1671 19.216C16.4231 19.216 15.8051 19.09 15.3131 18.838C14.8211 18.586 14.4551 18.25 14.2151 17.83C13.9751 17.41 13.8551 16.954 13.8551 16.462C13.8551 15.55 14.2031 14.848 14.8991 14.356C15.5951 13.864 16.5431 13.618 17.7431 13.618H20.1551V13.51C20.1551 12.73 19.9511 12.142 19.5431 11.746C19.1351 11.338 18.5891 11.134 17.9051 11.134C17.3171 11.134 16.8071 11.284 16.3751 11.584C15.9551 11.872 15.6911 12.298 15.5831 12.862H14.0351C14.0951 12.214 14.3111 11.668 14.6831 11.224C15.0671 10.78 15.5411 10.444 16.1051 10.216C16.6691 9.976 17.2691 9.856 17.9051 9.856C19.1531 9.856 20.0891 10.192 20.7131 10.864C21.3491 11.524 21.6671 12.406 21.6671 13.51V19H20.3171L20.2271 17.398C19.9751 17.902 19.6031 18.334 19.1111 18.694C18.6311 19.042 17.9831 19.216 17.1671 19.216ZM17.4011 17.938C17.9771 17.938 18.4691 17.788 18.8771 17.488C19.2971 17.188 19.6151 16.798 19.8311 16.318C20.0471 15.838 20.1551 15.334 20.1551 14.806V14.788H17.8691C16.9811 14.788 16.3511 14.944 15.9791 15.256C15.6191 15.556 15.4391 15.934 15.4391 16.39C15.4391 16.858 15.6071 17.236 15.9431 17.524C16.2911 17.8 16.7771 17.938 17.4011 17.938ZM23.9354 22.96V10.072H25.3034L25.4474 11.548C25.7354 11.116 26.1434 10.726 26.6714 10.378C27.2114 10.03 27.8954 9.856 28.7234 9.856C29.6114 9.856 30.3854 10.06 31.0454 10.468C31.7054 10.876 32.2154 11.434 32.5754 12.142C32.9474 12.85 33.1334 13.654 33.1334 14.554C33.1334 15.454 32.9474 16.258 32.5754 16.966C32.2154 17.662 31.6994 18.214 31.0274 18.622C30.3674 19.018 29.5934 19.216 28.7054 19.216C27.9734 19.216 27.3194 19.066 26.7434 18.766C26.1794 18.466 25.7474 18.046 25.4474 17.506V22.96H23.9354ZM28.5434 17.902C29.1434 17.902 29.6714 17.764 30.1274 17.488C30.5834 17.2 30.9434 16.804 31.2074 16.3C31.4714 15.796 31.6034 15.208 31.6034 14.536C31.6034 13.864 31.4714 13.276 31.2074 12.772C30.9434 12.268 30.5834 11.878 30.1274 11.602C29.6714 11.314 29.1434 11.17 28.5434 11.17C27.9434 11.17 27.4154 11.314 26.9594 11.602C26.5034 11.878 26.1434 12.268 25.8794 12.772C25.6154 13.276 25.4834 13.864 25.4834 14.536C25.4834 15.208 25.6154 15.796 25.8794 16.3C26.1434 16.804 26.5034 17.2 26.9594 17.488C27.4154 17.764 27.9434 17.902 28.5434 17.902ZM38.4145 19C37.5985 19 36.9565 18.802 36.4885 18.406C36.0205 18.01 35.7865 17.296 35.7865 16.264V11.35H34.2385V10.072H35.7865L35.9845 7.93H37.2985V10.072H39.9265V11.35H37.2985V16.264C37.2985 16.828 37.4125 17.212 37.6405 17.416C37.8685 17.608 38.2705 17.704 38.8465 17.704H39.7825V19H38.4145ZM45.1055 19.216C44.0495 19.216 43.2095 18.898 42.5855 18.262C41.9615 17.614 41.6495 16.624 41.6495 15.292V10.072H43.1615V15.13C43.1615 16.99 43.9235 17.92 45.4475 17.92C46.2275 17.92 46.8695 17.644 47.3735 17.092C47.8895 16.528 48.1475 15.73 48.1475 14.698V10.072H49.6595V19H48.2915L48.1835 17.398C47.9075 17.962 47.4935 18.406 46.9415 18.73C46.4015 19.054 45.7895 19.216 45.1055 19.216ZM52.1483 19V10.072H53.5163L53.6423 11.782C53.9183 11.194 54.3383 10.726 54.9023 10.378C55.4663 10.03 56.1623 9.856 56.9903 9.856V11.44H56.5763C56.0483 11.44 55.5623 11.536 55.1183 11.728C54.6743 11.908 54.3203 12.22 54.0563 12.664C53.7923 13.108 53.6603 13.72 53.6603 14.5V19H52.1483ZM62.3673 19.216C61.5153 19.216 60.7593 19.024 60.0993 18.64C59.4393 18.244 58.9173 17.698 58.5333 17.002C58.1613 16.306 57.9753 15.484 57.9753 14.536C57.9753 13.6 58.1613 12.784 58.5333 12.088C58.9053 11.38 59.4213 10.834 60.0813 10.45C60.7533 10.054 61.5273 9.856 62.4033 9.856C63.2673 9.856 64.0113 10.054 64.6353 10.45C65.2713 10.834 65.7573 11.344 66.0933 11.98C66.4293 12.616 66.5973 13.3 66.5973 14.032C66.5973 14.164 66.5913 14.296 66.5793 14.428C66.5793 14.56 66.5793 14.71 66.5793 14.878H59.4693C59.5053 15.562 59.6613 16.132 59.9373 16.588C60.2253 17.032 60.5793 17.368 60.9993 17.596C61.4313 17.824 61.8873 17.938 62.3673 17.938C62.9913 17.938 63.5133 17.794 63.9333 17.506C64.3533 17.218 64.6593 16.828 64.8513 16.336H66.3453C66.1053 17.164 65.6433 17.854 64.9593 18.406C64.2873 18.946 63.4233 19.216 62.3673 19.216ZM62.3673 11.134C61.6473 11.134 61.0053 11.356 60.4413 11.8C59.8893 12.232 59.5713 12.868 59.4873 13.708H65.1033C65.0673 12.904 64.7913 12.274 64.2753 11.818C63.7593 11.362 63.1233 11.134 62.3673 11.134Z" fill="#D0CAD0"/>
<path d="M72.6277 8.49432V3.25284H75.014C75.3218 3.25284 75.6011 3.31913 75.8521 3.4517C76.103 3.57954 76.2995 3.7642 76.4416 4.00568C76.5884 4.24242 76.6618 4.52415 76.6618 4.85085C76.6618 5.18229 76.5884 5.47348 76.4416 5.72443C76.2948 5.97064 76.0936 6.16477 75.8379 6.30682C75.5869 6.44413 75.3029 6.51278 74.9856 6.51278H73.0112V5.9233H74.8578C75.1845 5.9233 75.4449 5.8286 75.639 5.6392C75.8379 5.44981 75.9373 5.18703 75.9373 4.85085C75.9373 4.50994 75.8379 4.25663 75.639 4.09091C75.4449 3.92519 75.1868 3.84233 74.8649 3.84233H73.3166V8.49432H72.6277ZM75.5822 6.10085L76.8748 8.49432H76.1078L74.8365 6.10085H75.5822ZM74.4956 11.6193C73.7096 11.6193 72.9733 11.4725 72.2868 11.179C71.6002 10.8854 70.9965 10.4782 70.4757 9.95739C69.9548 9.43655 69.5476 8.83286 69.2541 8.14631C68.9605 7.45975 68.8137 6.72348 68.8137 5.9375C68.8137 5.15152 68.9605 4.41525 69.2541 3.72869C69.5476 3.04214 69.9548 2.43845 70.4757 1.91761C70.9965 1.39678 71.6002 0.989583 72.2868 0.696023C72.9733 0.402462 73.7096 0.255681 74.4956 0.255681C75.2815 0.255681 76.0178 0.402462 76.7044 0.696023C77.3909 0.989583 77.9946 1.39678 78.5154 1.91761C79.0363 2.43845 79.4435 3.04214 79.737 3.72869C80.0306 4.41525 80.1774 5.15152 80.1774 5.9375C80.1774 6.72348 80.0306 7.45975 79.737 8.14631C79.4435 8.83286 79.0363 9.43655 78.5154 9.95739C77.9946 10.4782 77.3909 10.8854 76.7044 11.179C76.0178 11.4725 75.2815 11.6193 74.4956 11.6193ZM74.4956 10.8594C75.4047 10.8594 76.2309 10.6392 76.9743 10.1989C77.7224 9.75852 78.3166 9.16667 78.7569 8.4233C79.1973 7.67519 79.4174 6.84659 79.4174 5.9375C79.4174 5.02841 79.1949 4.20218 78.7498 3.45881C78.3095 2.71544 77.7176 2.12358 76.9743 1.68324C76.2309 1.23816 75.4047 1.01562 74.4956 1.01562C73.5865 1.01562 72.7579 1.2358 72.0098 1.67614C71.2664 2.11648 70.6745 2.7107 70.2342 3.45881C69.7939 4.20218 69.5737 5.02841 69.5737 5.9375C69.5737 6.84186 69.7939 7.66809 70.2342 8.41619C70.6745 9.1643 71.2664 9.75852 72.0098 10.1989C72.7579 10.6392 73.5865 10.8594 74.4956 10.8594Z" fill="#DA8175"/>
</svg>
